<svg width="1440" height="1024" viewBox="0 0 1440 1024" fill="none" xmlns="http://www.w3.org/2000/svg">
<path d="M157.572 -112.926C157.404 -114.077 159.005 -114.539 159.476 -113.475L198.059 -26.4469C198.398 -25.6823 199.47 -25.6468 199.858 -26.3873L244.115 -110.672C244.655 -111.702 246.221 -111.135 245.978 -109.998L226.038 -16.9121C225.863 -16.0944 226.709 -15.4357 227.459 -15.8062L312.804 -57.9812C313.847 -58.4965 314.781 -57.1174 313.915 -56.3405L243.069 7.24732C242.447 7.80593 242.744 8.83627 243.569 8.97721L337.404 25.0217C338.551 25.2178 338.496 26.8824 337.339 27.0021L242.647 36.8034C241.815 36.8895 241.45 37.8979 242.034 38.4965L308.518 106.632C309.331 107.464 308.308 108.779 307.301 108.196L224.933 60.4667C224.209 60.0474 223.321 60.6487 223.442 61.4762L237.18 155.677C237.348 156.828 235.747 157.29 235.276 156.227L196.693 69.1986C196.354 68.4341 195.282 68.3985 194.893 69.139L150.637 153.424C150.097 154.454 148.531 153.887 148.774 152.75L168.714 59.6639C168.889 58.8461 168.043 58.1874 167.293 58.5579L81.9476 100.733C80.9049 101.248 79.9711 99.8691 80.8366 99.0922L151.683 35.5044C152.305 34.9458 152.008 33.9155 151.183 33.7745L57.3475 17.73C56.2011 17.534 56.2563 15.8694 57.4131 15.7496L152.105 5.94834C152.937 5.86223 153.302 4.85383 152.718 4.25527L86.2335 -63.8804C85.4213 -64.7128 86.4444 -66.0271 87.4506 -65.444L169.819 -17.7149C170.543 -17.2957 171.431 -17.8969 171.31 -18.7245L157.572 -112.926Z" fill="#6100FF" fill-opacity="0.5"/>
<path d="M1199.05 479.218C1198.71 476.916 1201.91 475.992 1202.85 478.118L1232.38 544.715C1233.06 546.245 1235.2 546.316 1235.98 544.835L1269.84 480.337C1270.93 478.278 1274.06 479.411 1273.57 481.686L1258.31 552.918C1257.96 554.553 1259.65 555.871 1261.15 555.13L1326.46 522.856C1328.55 521.826 1330.42 524.584 1328.69 526.138L1274.47 574.797C1273.23 575.914 1273.82 577.975 1275.47 578.257L1347.28 590.535C1349.57 590.927 1349.46 594.256 1347.15 594.495L1274.68 601.996C1273.02 602.168 1272.29 604.185 1273.46 605.382L1324.33 657.521C1325.96 659.186 1323.91 661.815 1321.9 660.649L1258.87 624.125C1257.42 623.286 1255.65 624.489 1255.89 626.144L1266.4 698.23C1266.74 700.531 1263.54 701.455 1262.59 699.329L1233.07 632.732C1232.39 631.203 1230.25 631.132 1229.47 632.613L1195.6 697.11C1194.52 699.17 1191.39 698.036 1191.88 695.762L1207.13 624.529C1207.49 622.894 1205.79 621.576 1204.29 622.317L1138.98 654.591C1136.9 655.622 1135.03 652.863 1136.76 651.31L1190.98 602.65C1192.22 601.533 1191.63 599.472 1189.98 599.19L1118.17 586.913C1115.88 586.521 1115.99 583.191 1118.3 582.952L1190.76 575.452C1192.43 575.279 1193.16 573.263 1191.99 572.066L1141.11 519.926C1139.49 518.261 1141.53 515.633 1143.55 516.799L1206.58 553.323C1208.03 554.161 1209.8 552.959 1209.56 551.303L1199.05 479.218Z" fill="#6100FF" fill-opacity="0.15"/>
<path d="M-17.9498 408.34C-18.2854 406.039 -15.0851 405.115 -14.1423 407.241L-1.08605 436.691C-0.408162 438.22 1.73549 438.291 2.51306 436.81L17.4891 408.289C18.5705 406.229 21.7027 407.363 21.2155 409.637L14.468 441.137C14.1176 442.773 15.8102 444.09 17.3097 443.349L46.1902 429.077C48.2755 428.047 50.1432 430.805 48.4122 432.359L24.4381 453.876C23.1934 454.994 23.7883 457.054 25.437 457.336L57.1906 462.766C59.4834 463.158 59.3731 466.487 57.0594 466.726L25.0162 470.043C23.3525 470.215 22.6225 472.232 23.7906 473.429L46.2886 496.486C47.913 498.151 45.8669 500.779 43.8544 499.613L15.9813 483.462C14.5341 482.623 12.7581 483.826 12.9995 485.481L17.6483 517.358C17.9839 519.66 14.7835 520.584 13.8408 518.458L0.784518 489.008C0.10663 487.478 -2.03703 487.407 -2.81459 488.888L-17.7907 517.41C-18.872 519.469 -22.0042 518.336 -21.517 516.061L-14.7695 484.561C-14.4192 482.926 -16.1117 481.609 -17.6112 482.35L-46.4917 496.621C-48.577 497.652 -50.4447 494.894 -48.7137 493.34L-24.7397 471.822C-23.4949 470.705 -24.0898 468.644 -25.7385 468.362L-57.4921 462.933C-59.7849 462.541 -59.6746 459.212 -57.361 458.972L-25.3177 455.656C-23.654 455.483 -22.9241 453.467 -24.0922 452.269L-46.5901 429.213C-48.2145 427.548 -46.1684 424.919 -44.1559 426.085L-16.2828 442.237C-14.8356 443.075 -13.0597 441.873 -13.301 440.218L-17.9498 408.34Z" fill="#6100FF" fill-opacity="0.2"/>
<path d="M950.669 -45.4185C950.333 -47.7202 953.534 -48.6441 954.476 -46.5177L974.006 -2.4657C974.684 -0.936635 976.828 -0.865647 977.605 -2.34651L1000.01 -45.01C1001.09 -47.0694 1004.22 -45.9357 1003.73 -43.6613L993.64 3.45695C993.29 5.09245 994.982 6.40989 996.482 5.66889L1039.68 -15.6793C1041.77 -16.7098 1043.63 -13.9515 1041.9 -12.3978L1006.04 19.789C1004.8 20.9062 1005.39 22.9669 1007.04 23.2488L1054.54 31.3702C1056.83 31.7622 1056.72 35.0915 1054.41 35.3309L1006.48 40.2922C1004.81 40.4644 1004.08 42.4812 1005.25 43.6783L1038.9 78.1671C1040.53 79.832 1038.48 82.4606 1036.47 81.2944L994.777 57.1349C993.33 56.2963 991.554 57.4989 991.796 59.154L998.749 106.837C999.085 109.138 995.885 110.062 994.942 107.936L975.412 63.8839C974.734 62.3548 972.59 62.2839 971.813 63.7647L949.411 106.428C948.33 108.488 945.198 107.354 945.685 105.079L955.778 57.9612C956.128 56.3258 954.436 55.0083 952.936 55.7493L909.736 77.0975C907.651 78.128 905.783 75.3697 907.514 73.816L943.375 41.6292C944.62 40.512 944.025 38.4513 942.376 38.1694L894.879 30.048C892.586 29.656 892.696 26.3267 895.01 26.0873L942.941 21.126C944.604 20.9538 945.334 18.937 944.166 17.7399L910.513 -16.7489C908.889 -18.4137 910.935 -21.0424 912.948 -19.8762L954.641 4.28329C956.088 5.12187 957.864 3.9193 957.623 2.26421L950.669 -45.4185Z" fill="#6100FF" fill-opacity="0.59"/>
<path d="M239.669 540.581C239.333 538.28 242.534 537.356 243.476 539.482L263.006 583.534C263.684 585.063 265.828 585.134 266.605 583.653L289.007 540.99C290.088 538.931 293.22 540.064 292.733 542.339L282.64 589.457C282.29 591.092 283.982 592.41 285.482 591.669L328.682 570.321C330.767 569.29 332.635 572.048 330.904 573.602L295.043 605.789C293.798 606.906 294.393 608.967 296.042 609.249L343.54 617.37C345.832 617.762 345.722 621.091 343.408 621.331L295.477 626.292C293.814 626.464 293.084 628.481 294.252 629.678L327.905 664.167C329.529 665.832 327.483 668.461 325.471 667.294L283.777 643.135C282.33 642.296 280.554 643.499 280.796 645.154L287.749 692.837C288.085 695.138 284.885 696.062 283.942 693.936L264.412 649.884C263.734 648.355 261.59 648.284 260.813 649.765L238.411 692.428C237.33 694.488 234.198 693.354 234.685 691.079L244.778 643.961C245.128 642.326 243.436 641.008 241.936 641.749L198.736 663.097C196.651 664.128 194.783 661.37 196.514 659.816L232.375 627.629C233.62 626.512 233.025 624.451 231.376 624.169L183.879 616.048C181.586 615.656 181.696 612.327 184.01 612.087L231.941 607.126C233.604 606.954 234.334 604.937 233.166 603.74L199.513 569.251C197.889 567.586 199.935 564.958 201.948 566.124L243.641 590.283C245.088 591.122 246.864 589.919 246.623 588.264L239.669 540.581Z" fill="#6100FF" fill-opacity="0.2"/>
<path d="M1380.79 193.841C1380.45 191.539 1383.65 190.616 1384.59 192.742L1398.17 223.364C1398.85 224.893 1400.99 224.964 1401.77 223.483L1417.34 193.826C1418.42 191.767 1421.55 192.901 1421.07 195.175L1414.05 227.929C1413.7 229.564 1415.39 230.882 1416.89 230.141L1446.92 215.301C1449.01 214.27 1450.88 217.029 1449.14 218.582L1424.22 240.957C1422.97 242.074 1423.57 244.135 1425.22 244.416L1458.23 250.062C1460.53 250.454 1460.42 253.783 1458.1 254.023L1424.78 257.471C1423.12 257.644 1422.39 259.66 1423.56 260.858L1446.95 284.832C1448.58 286.497 1446.53 289.126 1444.52 287.959L1415.53 271.165C1414.09 270.327 1412.31 271.529 1412.55 273.184L1417.39 306.33C1417.72 308.632 1414.52 309.556 1413.58 307.43L1400 276.807C1399.32 275.278 1397.18 275.207 1396.4 276.688L1380.83 306.345C1379.75 308.405 1376.62 307.271 1377.1 304.996L1384.12 272.243C1384.47 270.607 1382.78 269.29 1381.28 270.031L1351.25 284.871C1349.16 285.901 1347.3 283.143 1349.03 281.589L1373.96 259.215C1375.2 258.098 1374.61 256.037 1372.96 255.755L1339.94 250.11C1337.65 249.718 1337.76 246.388 1340.07 246.149L1373.39 242.7C1375.05 242.528 1375.78 240.511 1374.61 239.314L1351.22 215.339C1349.6 213.675 1351.64 211.046 1353.66 212.212L1382.64 229.006C1384.09 229.845 1385.86 228.642 1385.62 226.987L1380.79 193.841Z" fill="#6100FF" fill-opacity="0.59"/>
<path d="M1086.99 747.038L1092.57 758.221L1105.01 756.987L1093.83 762.573L1095.06 775.013L1089.48 763.829L1077.04 765.063L1088.22 759.478L1086.99 747.038Z" fill="white"/>
<path d="M193.195 300.809L198.464 311.359L210.199 310.195L199.649 315.464L200.813 327.199L195.544 316.649L183.809 317.813L194.359 312.544L193.195 300.809Z" fill="white"/>
<path d="M522.195 -4.19062L527.464 6.35886L539.199 5.19478L528.649 10.4641L529.813 22.1987L524.544 11.6492L512.809 12.8133L523.359 7.54402L522.195 -4.19062Z" fill="white"/>
<path d="M1263.19 48.8296L1271.26 64.9741L1289.21 63.1927L1273.07 71.2566L1274.85 89.2148L1266.79 73.0703L1248.83 74.8518L1264.97 66.7879L1263.19 48.8296Z" fill="white"/>
<path d="M1328.19 900.83L1336.26 916.974L1354.21 915.193L1338.07 923.257L1339.85 941.215L1331.79 925.07L1313.83 926.852L1329.97 918.788L1328.19 900.83Z" fill="white"/>
<path d="M97.1926 827.83L105.257 843.974L123.215 842.193L107.07 850.257L108.852 868.215L100.788 852.07L82.8296 853.852L98.9741 845.788L97.1926 827.83Z" fill="white"/>
<path d="M330.193 1003.83L338.257 1019.97L356.215 1018.19L340.07 1026.26L341.852 1044.21L333.788 1028.07L315.83 1029.85L331.974 1021.79L330.193 1003.83Z" fill="white"/>
</svg>
