<svg width="247" height="46" viewBox="0 0 247 46" fill="none" xmlns="http://www.w3.org/2000/svg">
<rect width="246.22" height="46" rx="12" fill="#6100FF"/>
<path d="M224.736 26.5566L228.293 23L224.736 19.4433C224.651 19.3585 224.583 19.2578 224.537 19.1469C224.491 19.036 224.468 18.9171 224.468 18.7971C224.468 18.677 224.491 18.5581 224.537 18.4472C224.583 18.3363 224.651 18.2356 224.736 18.1508C225.093 17.7933 225.671 17.7933 226.028 18.1508L230.236 22.3583C230.593 22.7158 230.593 23.2933 230.236 23.6508L226.028 27.8583C225.671 28.2158 225.093 28.2158 224.736 27.8583C224.388 27.5008 224.378 26.9141 224.736 26.5566Z" fill="white"/>
</svg>
